<svg id="visual" viewBox="0 0 900 600" width="900" height="600" xmlns="http://www.w3.org/2000/svg" xmlns:xlink="http://www.w3.org/1999/xlink" version="1.1"><rect x="0" y="0" width="900" height="600" fill="#001220"></rect><path d="M0 376L18.8 386.5C37.7 397 75.3 418 112.8 417.7C150.3 417.3 187.7 395.7 225.2 395.5C262.7 395.3 300.3 416.7 337.8 421.7C375.3 426.7 412.7 415.3 450.2 400.8C487.7 386.3 525.3 368.7 562.8 367.7C600.3 366.7 637.7 382.3 675.2 391.5C712.7 400.7 750.3 403.3 787.8 398.5C825.3 393.7 862.7 381.3 881.3 375.2L900 369L900 601L881.3 601C862.7 601 825.3 601 787.8 601C750.3 601 712.7 601 675.2 601C637.7 601 600.3 601 562.8 601C525.3 601 487.7 601 450.2 601C412.7 601 375.3 601 337.8 601C300.3 601 262.7 601 225.2 601C187.7 601 150.3 601 112.8 601C75.3 601 37.7 601 18.8 601L0 601Z" fill="#4d9cae"></path><path d="M0 468L18.8 468.5C37.7 469 75.3 470 112.8 468.7C150.3 467.3 187.7 463.7 225.2 453.8C262.7 444 300.3 428 337.8 418.5C375.3 409 412.7 406 450.2 413.8C487.7 421.7 525.3 440.3 562.8 446.7C600.3 453 637.7 447 675.2 439.7C712.7 432.3 750.3 423.7 787.8 418.3C825.3 413 862.7 411 881.3 410L900 409L900 601L881.3 601C862.7 601 825.3 601 787.8 601C750.3 601 712.7 601 675.2 601C637.7 601 600.3 601 562.8 601C525.3 601 487.7 601 450.2 601C412.7 601 375.3 601 337.8 601C300.3 601 262.7 601 225.2 601C187.7 601 150.3 601 112.8 601C75.3 601 37.7 601 18.8 601L0 601Z" fill="#209bc5"></path><path d="M0 460L18.8 457.8C37.7 455.7 75.3 451.3 112.8 452.8C150.3 454.3 187.7 461.7 225.2 471.2C262.7 480.7 300.3 492.3 337.8 488.3C375.3 484.3 412.7 464.7 450.2 455.8C487.7 447 525.3 449 562.8 457.3C600.3 465.7 637.7 480.3 675.2 486.5C712.7 492.7 750.3 490.3 787.8 483.8C825.3 477.3 862.7 466.7 881.3 461.3L900 456L900 601L881.3 601C862.7 601 825.3 601 787.8 601C750.3 601 712.7 601 675.2 601C637.7 601 600.3 601 562.8 601C525.3 601 487.7 601 450.2 601C412.7 601 375.3 601 337.8 601C300.3 601 262.7 601 225.2 601C187.7 601 150.3 601 112.8 601C75.3 601 37.7 601 18.8 601L0 601Z" fill="#0096dc"></path><path d="M0 507L18.8 507.8C37.7 508.7 75.3 510.3 112.8 514.3C150.3 518.3 187.7 524.7 225.2 526.7C262.7 528.7 300.3 526.3 337.8 520.3C375.3 514.3 412.7 504.7 450.2 498C487.7 491.3 525.3 487.7 562.8 486.8C600.3 486 637.7 488 675.2 490.7C712.7 493.3 750.3 496.7 787.8 496C825.3 495.3 862.7 490.7 881.3 488.3L900 486L900 601L881.3 601C862.7 601 825.3 601 787.8 601C750.3 601 712.7 601 675.2 601C637.7 601 600.3 601 562.8 601C525.3 601 487.7 601 450.2 601C412.7 601 375.3 601 337.8 601C300.3 601 262.7 601 225.2 601C187.7 601 150.3 601 112.8 601C75.3 601 37.7 601 18.8 601L0 601Z" fill="#008df0"></path><path d="M0 534L18.8 534.5C37.7 535 75.3 536 112.8 536.2C150.3 536.3 187.7 535.7 225.2 538.8C262.7 542 300.3 549 337.8 555.2C375.3 561.3 412.7 566.7 450.2 562.8C487.7 559 525.3 546 562.8 544C600.3 542 637.7 551 675.2 554.2C712.7 557.3 750.3 554.7 787.8 552.7C825.3 550.7 862.7 549.3 881.3 548.7L900 548L900 601L881.3 601C862.7 601 825.3 601 787.8 601C750.3 601 712.7 601 675.2 601C637.7 601 600.3 601 562.8 601C525.3 601 487.7 601 450.2 601C412.7 601 375.3 601 337.8 601C300.3 601 262.7 601 225.2 601C187.7 601 150.3 601 112.8 601C75.3 601 37.7 601 18.8 601L0 601Z" fill="#0080ff"></path></svg>